<svg width="133" height="134" viewBox="0 0 133 134" fill="none" xmlns="http://www.w3.org/2000/svg">
<path d="M66.5 0.0500031C66.7333 0.0500031 66.95 0.150006 67.15 0.350006L72.2 5.39999C72.5 5.69999 72.5667 6.05 72.4 6.45C72.2333 6.85 71.9333 7.05 71.5 7.05H61.45C61.0167 7.05 60.7167 6.85 60.55 6.45L60.5 6.05C60.4667 5.81667 60.55 5.59999 60.75 5.39999H60.8L65.8 0.350006C66 0.150006 66.2333 0.0500031 66.5 0.0500031ZM126 61.55C126 61.1167 126.2 60.8167 126.6 60.65C127 60.4833 127.35 60.55 127.65 60.85L132.7 65.9L133 66.55L132.7 67.25L127.65 72.25V72.3L127 72.55L126.6 72.5C126.2 72.3333 126 72.0333 126 71.6V61.55ZM7 61.55V71.6C7 72.0333 6.8 72.3333 6.4 72.5L6 72.55C5.76667 72.5833 5.55 72.5 5.35 72.3V72.25L0.299999 67.25C0.0999992 67.05 0 66.8167 0 66.55C0 66.3167 0.0999992 66.1 0.299999 65.9L5.35 60.85C5.65 60.55 6 60.4833 6.4 60.65C6.8 60.8167 7 61.1167 7 61.55ZM72.4 126.65C72.5667 127.05 72.5 127.4 72.2 127.7L67.15 132.75L66.5 133.05L65.8 132.75L60.8 127.7H60.75C60.55 127.5 60.4667 127.283 60.5 127.05L60.55 126.65C60.7167 126.25 61.0167 126.05 61.45 126.05H71.5C71.9333 126.05 72.2333 126.25 72.4 126.65Z" fill="#D4D4D4"/>
</svg>
